<?xml version="1.0" encoding="iso-8859-1"?>
<!-- Generator: Adobe Illustrator 19.0.0, SVG Export Plug-In . SVG Version: 6.00 Build 0)  -->
<svg version="1.1" id="Capa_1" xmlns="http://www.w3.org/2000/svg" xmlns:xlink="http://www.w3.org/1999/xlink" x="0px" y="0px"
	 viewBox="0 0 512 512" style="enable-background:new 0 0 512 512;" xml:space="preserve">
<linearGradient id="SVGID_1_" gradientUnits="userSpaceOnUse" x1="64.5" y1="258" x2="447.5" y2="258" gradientTransform="matrix(1 0 0 -1 0 514)">
	<stop  offset="0" style="stop-color:#00F2FE"/>
	<stop  offset="0.021" style="stop-color:#03EFFE"/>
	<stop  offset="0.293" style="stop-color:#24D2FE"/>
	<stop  offset="0.554" style="stop-color:#3CBDFE"/>
	<stop  offset="0.796" style="stop-color:#4AB0FE"/>
	<stop  offset="1" style="stop-color:#4FACFE"/>
</linearGradient>
<path style="fill:url(#SVGID_1_);" d="M379.532,239.595c10.356-10.502,18.575-23.252,23.779-37.661
	c4.106-11.368,6.188-23.306,6.188-35.483C409.498,108.856,362.58,62,304.909,62H244.5V20c0-11.046-8.954-20-20-20s-20,8.954-20,20
	v42h-40V20c0-11.046-8.954-20-20-20s-20,8.954-20,20v42h-40c-11.046,0-20,8.954-20,20s8.954,20,20,20h40v310h-40
	c-11.046,0-20,8.954-20,20s8.954,20,20,20h40v40c0,11.046,8.954,20,20,20s20-8.954,20-20v-40h40v40c0,11.046,8.954,20,20,20
	s20-8.954,20-20v-40h92.759c11.98,0,24.093-1.747,35.027-5.052c10.573-3.195,16.554-14.357,13.358-24.931
	c-3.195-10.574-14.359-16.555-24.931-13.358c-7.232,2.186-15.342,3.341-23.455,3.341H164.5V102h140.409
	c35.615,0,64.589,28.913,64.589,64.451c0,7.531-1.281,14.898-3.809,21.896c-9.192,25.454-33.618,42.555-60.78,42.555
	c-0.833,0-1.65,0.067-2.456,0.166H218.5c-11.046,0-20,8.954-20,20s8.954,20,20,20h118.52c38.863,0,70.48,31.712,70.48,70.691
	c0,4.181-0.311,8.25-0.923,12.096c-1.737,10.908,5.697,21.159,16.605,22.896c1.066,0.17,2.124,0.252,3.17,0.252
	c9.659,0,18.159-7.015,19.727-16.857c0.943-5.919,1.421-12.106,1.421-18.387C447.5,295.81,419.409,256.315,379.532,239.595z"/>
<g>
</g>
<g>
</g>
<g>
</g>
<g>
</g>
<g>
</g>
<g>
</g>
<g>
</g>
<g>
</g>
<g>
</g>
<g>
</g>
<g>
</g>
<g>
</g>
<g>
</g>
<g>
</g>
<g>
</g>
</svg>
