<svg height="512pt" viewBox="0 0 512 512" width="512pt" xmlns="http://www.w3.org/2000/svg" xmlns:xlink="http://www.w3.org/1999/xlink"><linearGradient id="a" gradientTransform="matrix(1 0 0 -1 0 -13734)" gradientUnits="userSpaceOnUse" x1="0" x2="512" y1="-13990" y2="-13990"><stop offset="0" stop-color="#00f38d"/><stop offset="1" stop-color="#009eff"/></linearGradient><path d="m512 256c0 141.386719-114.613281 256-256 256s-256-114.613281-256-256 114.613281-256 256-256 256 114.613281 256 256zm0 0" fill="url(#a)"/><g fill="#fff"><path d="m386.804688 83.5h-261.609376c-22.992187 0-41.695312 18.703125-41.695312 41.695312v55.042969h30v-55.042969c0-6.449218 5.246094-11.695312 11.695312-11.695312h261.609376c6.449218 0 11.695312 5.246094 11.695312 11.695312v261.609376c0 6.449218-5.246094 11.695312-11.695312 11.695312h-261.609376c-6.449218 0-11.695312-5.246094-11.695312-11.695312v-55.042969h-30v55.042969c0 22.992187 18.703125 41.695312 41.695312 41.695312h261.609376c22.992187 0 41.695312-18.703125 41.695312-41.695312v-261.609376c0-22.992187-18.703125-41.695312-41.695312-41.695312zm0 0"/><path d="m224.109375 320.066406 21.210937 21.214844 85.28125-85.28125-85.28125-85.28125-21.210937 21.214844 49.066406 49.066406h-189.675781v30h189.675781zm0 0"/></g></svg>