<svg height="464pt" viewBox="0 -64 464 464" width="464pt" xmlns="http://www.w3.org/2000/svg"><path d="m232 336-17.777344-17.777344c-39.839844-39.839844-62.222656-93.878906-62.222656-150.222656s22.382812-110.382812 62.222656-150.222656l17.777344-17.777344 17.777344 17.777344c39.839844 39.839844 62.222656 93.878906 62.222656 150.222656s-22.382812 110.382812-62.222656 150.222656zm0 0" fill="#89c9d2"/><path d="m392 72v104c0 88.367188-71.632812 160-160 160v-104c0-88.367188 71.632812-160 160-160zm0 0" fill="#a7d6dd"/><path d="m72 72v104c0 88.367188 71.632812 160 160 160v-104c0-88.367188-71.632812-160-160-160zm0 0" fill="#6cbbc7"/><path d="m232 336h-104c-70.691406 0-128-57.308594-128-128h104c70.691406 0 128 57.308594 128 128zm0 0" fill="#518c95"/><path d="m336 336h-104c0-70.691406 57.308594-128 128-128h104c0 70.691406-57.308594 128-128 128zm0 0" fill="#c4e4e9"/></svg>