<svg id="Capa_1" enable-background="new 0 0 512 512" height="512" viewBox="0 0 512 512" width="512" xmlns="http://www.w3.org/2000/svg" xmlns:xlink="http://www.w3.org/1999/xlink"><linearGradient id="SVGID_1_" gradientUnits="userSpaceOnUse" x1="256" x2="256" y1="512" y2="0"><stop offset="0" stop-color="#ffc2cc"/><stop offset="1" stop-color="#fff2f4"/></linearGradient><linearGradient id="SVGID_2_" gradientUnits="userSpaceOnUse" x1="256" x2="256" y1="407" y2="105"><stop offset="0" stop-color="#ffa68d"/><stop offset="1" stop-color="#fd3a84"/></linearGradient><g><g><circle cx="256" cy="256" fill="url(#SVGID_1_)" r="256"/></g><g><g><path d="m247.118 202.706c0 4.901 3.99 8.882 8.882 8.882s8.882-3.981 8.882-8.882v-8.882h-8.882c-4.892-.001-8.882 3.981-8.882 8.882zm8.882 97.706c53.867 0 97.706-43.831 97.706-97.706s-43.839-97.706-97.706-97.706-97.706 43.831-97.706 97.706 43.839 97.706 97.706 97.706zm0-159.883c34.28 0 62.177 27.896 62.177 62.177 0 14.694-11.953 26.647-26.647 26.647-6.849 0-13.039-2.669-17.765-6.931-4.725 4.261-10.915 6.931-17.765 6.931-14.694 0-26.647-11.953-26.647-26.647s11.953-26.647 26.647-26.647h17.765c4.91 0 8.882 3.973 8.882 8.882v17.765c0 4.901 3.99 8.882 8.882 8.882s8.882-3.981 8.882-8.882c0-24.487-19.916-44.412-44.412-44.412s-44.412 19.925-44.412 44.412 19.916 44.412 44.412 44.412c5.083 0 10.079-.85 14.815-2.524 4.649-1.657 9.698.772 11.346 5.413 1.631 4.623-.798 9.698-5.413 11.328-6.662 2.359-13.636 3.548-20.749 3.548-34.28 0-62.177-27.896-62.177-62.177.002-34.28 27.899-62.177 62.179-62.177zm106.588 177.648h-213.176c-24.496 0-44.412 19.925-44.412 44.412 0 24.486 19.916 44.411 44.412 44.411h213.177c24.495 0 44.411-19.925 44.411-44.412s-19.916-44.411-44.412-44.411zm-177.647 53.294h-17.765c-4.91 0-8.882-3.973-8.882-8.883 0-4.909 3.973-8.882 8.882-8.882h17.765c4.91 0 8.882 3.973 8.882 8.882 0 4.91-3.972 8.883-8.882 8.883zm53.294 0h-17.765c-4.91 0-8.882-3.973-8.882-8.883 0-4.909 3.973-8.882 8.882-8.882h17.765c4.91 0 8.882 3.973 8.882 8.882.001 4.91-3.972 8.883-8.882 8.883zm53.294 0h-17.765c-4.91 0-8.882-3.973-8.882-8.883 0-4.909 3.973-8.882 8.882-8.882h17.765c4.91 0 8.882 3.973 8.882 8.882.001 4.91-3.972 8.883-8.882 8.883zm53.294 0h-17.765c-4.91 0-8.882-3.973-8.882-8.883 0-4.909 3.973-8.882 8.882-8.882h17.765c4.91 0 8.882 3.973 8.882 8.882.001 4.91-3.972 8.883-8.882 8.883z" fill="url(#SVGID_2_)"/></g></g></g></svg>